<svg width="512" height="512" viewBox="0 0 512 512" fill="none" xmlns="http://www.w3.org/2000/svg">
<rect width="512" height="512" fill="black"/>
<g filter="url(#filter0_d_1_251)">
<path d="M291.796 181.955C292.575 181.074 293.939 181.055 294.743 181.913L303.303 191.051C303.996 191.791 304.029 192.935 303.379 193.713L185.138 335.184C185.101 335.229 185.062 335.271 185.021 335.312C184.789 335.546 183.926 336.412 183.063 337.279C179.415 340.943 173.31 340.195 169.437 336.772C165.568 333.352 164.037 328.295 166.629 323.822C167.143 322.934 168.209 321.794 168.398 321.595C168.418 321.574 168.437 321.554 168.455 321.533L291.796 181.955Z" fill="#62B4E9"/>
</g>
<g filter="url(#filter1_d_1_251)">
<path d="M258.56 186.412C259.407 185.788 260.589 185.928 261.266 186.733L265.664 191.965C266.382 192.82 266.264 194.101 265.4 194.81L146.881 292.038C145.995 292.765 144.682 292.597 144.007 291.67L135.322 279.736C134.673 278.844 134.867 277.592 135.754 276.938L258.56 186.412Z" fill="#FF7E35"/>
</g>
<g filter="url(#filter2_d_1_251)">
<path d="M262.365 372.806C260.955 383.067 251.531 390.237 241.314 388.822C231.098 387.406 223.959 377.94 225.368 367.679C226.778 357.418 236.202 350.247 246.419 351.663C256.635 353.079 263.775 362.545 262.365 372.806Z" fill="url(#paint0_linear_1_251)"/>
<path d="M333.92 166.568C334.502 165.638 335.715 165.342 336.657 165.901L346.892 171.978C347.765 172.496 348.171 173.464 347.772 174.4C339.972 192.736 263.992 371.326 261.244 377.256C258.348 383.507 255.641 384.667 251.227 387.125C246.814 389.584 241.245 389.324 236.022 386.553C230.798 383.783 229.367 383.073 226.626 377.064C223.885 371.055 225.144 365.601 228.679 358.415C232.197 351.263 309.794 205.334 310.518 203.973C310.54 203.931 310.535 203.944 310.561 203.903L333.92 166.568Z" fill="url(#paint1_linear_1_251)"/>
</g>
<g filter="url(#filter3_d_1_251)">
<path d="M375.028 124.551C375.285 123.486 376.338 122.818 377.406 123.044L387.396 125.154C388.497 125.386 389.196 126.478 388.951 127.58L341.895 339.035C341.65 340.137 340.555 340.826 339.461 340.566L325.873 337.34C324.783 337.082 324.112 335.983 324.375 334.89L375.028 124.551Z" fill="url(#paint2_linear_1_251)"/>
</g>
<g filter="url(#filter4_d_1_251)">
<path d="M234.525 176.879C235.585 176.465 236.776 177.018 237.144 178.095L239.524 185.062C239.85 186.014 239.417 187.06 238.513 187.504L129.909 240.821C128.722 241.404 127.306 240.695 127.062 239.395L123.763 221.814C123.585 220.868 124.106 219.931 125.002 219.581L234.525 176.879Z" fill="url(#paint3_linear_1_251)"/>
</g>
<defs>
<filter id="filter0_d_1_251" x="159.345" y="175.282" width="150.501" height="170.422" filterUnits="userSpaceOnUse" color-interpolation-filters="sRGB">
<feFlood flood-opacity="0" result="BackgroundImageFix"/>
<feColorMatrix in="SourceAlpha" type="matrix" values="0 0 0 0 0 0 0 0 0 0 0 0 0 0 0 0 0 0 127 0" result="hardAlpha"/>
<feOffset/>
<feGaussianBlur stdDeviation="3"/>
<feComposite in2="hardAlpha" operator="out"/>
<feColorMatrix type="matrix" values="0 0 0 0 0.384314 0 0 0 0 0.705882 0 0 0 0 0.913725 0 0 0 1 0"/>
<feBlend mode="normal" in2="BackgroundImageFix" result="effect1_dropShadow_1_251"/>
<feBlend mode="normal" in="SourceGraphic" in2="effect1_dropShadow_1_251" result="shape"/>
</filter>
<filter id="filter1_d_1_251" x="128.938" y="180.022" width="143.196" height="118.468" filterUnits="userSpaceOnUse" color-interpolation-filters="sRGB">
<feFlood flood-opacity="0" result="BackgroundImageFix"/>
<feColorMatrix in="SourceAlpha" type="matrix" values="0 0 0 0 0 0 0 0 0 0 0 0 0 0 0 0 0 0 127 0" result="hardAlpha"/>
<feOffset/>
<feGaussianBlur stdDeviation="3"/>
<feComposite in2="hardAlpha" operator="out"/>
<feColorMatrix type="matrix" values="0 0 0 0 1 0 0 0 0 0.494118 0 0 0 0 0.207843 0 0 0 1 0"/>
<feBlend mode="normal" in2="BackgroundImageFix" result="effect1_dropShadow_1_251"/>
<feBlend mode="normal" in="SourceGraphic" in2="effect1_dropShadow_1_251" result="shape"/>
</filter>
<filter id="filter2_d_1_251" x="217.139" y="157.619" width="138.787" height="239.381" filterUnits="userSpaceOnUse" color-interpolation-filters="sRGB">
<feFlood flood-opacity="0" result="BackgroundImageFix"/>
<feColorMatrix in="SourceAlpha" type="matrix" values="0 0 0 0 0 0 0 0 0 0 0 0 0 0 0 0 0 0 127 0" result="hardAlpha"/>
<feOffset/>
<feGaussianBlur stdDeviation="4"/>
<feComposite in2="hardAlpha" operator="out"/>
<feColorMatrix type="matrix" values="0 0 0 0 0.760784 0 0 0 0 0.541176 0 0 0 0 0.831373 0 0 0 1 0"/>
<feBlend mode="normal" in2="BackgroundImageFix" result="effect1_dropShadow_1_251"/>
<feBlend mode="normal" in="SourceGraphic" in2="effect1_dropShadow_1_251" result="shape"/>
</filter>
<filter id="filter3_d_1_251" x="318.318" y="117" width="76.6824" height="229.621" filterUnits="userSpaceOnUse" color-interpolation-filters="sRGB">
<feFlood flood-opacity="0" result="BackgroundImageFix"/>
<feColorMatrix in="SourceAlpha" type="matrix" values="0 0 0 0 0 0 0 0 0 0 0 0 0 0 0 0 0 0 127 0" result="hardAlpha"/>
<feOffset/>
<feGaussianBlur stdDeviation="3"/>
<feComposite in2="hardAlpha" operator="out"/>
<feColorMatrix type="matrix" values="0 0 0 0 0.952941 0 0 0 0 0.0588235 0 0 0 0 0.486275 0 0 0 1 0"/>
<feBlend mode="normal" in2="BackgroundImageFix" result="effect1_dropShadow_1_251"/>
<feBlend mode="normal" in="SourceGraphic" in2="effect1_dropShadow_1_251" result="shape"/>
</filter>
<filter id="filter4_d_1_251" x="117.728" y="170.741" width="127.904" height="76.2858" filterUnits="userSpaceOnUse" color-interpolation-filters="sRGB">
<feFlood flood-opacity="0" result="BackgroundImageFix"/>
<feColorMatrix in="SourceAlpha" type="matrix" values="0 0 0 0 0 0 0 0 0 0 0 0 0 0 0 0 0 0 127 0" result="hardAlpha"/>
<feOffset/>
<feGaussianBlur stdDeviation="3"/>
<feComposite in2="hardAlpha" operator="out"/>
<feColorMatrix type="matrix" values="0 0 0 0 0.0627451 0 0 0 0 0.792157 0 0 0 0 0.705882 0 0 0 1 0"/>
<feBlend mode="normal" in2="BackgroundImageFix" result="effect1_dropShadow_1_251"/>
<feBlend mode="normal" in="SourceGraphic" in2="effect1_dropShadow_1_251" result="shape"/>
</filter>
<linearGradient id="paint0_linear_1_251" x1="342.042" y1="173.041" x2="246.993" y2="369.395" gradientUnits="userSpaceOnUse">
<stop stop-color="#C28AD4"/>
<stop offset="1" stop-color="#9D39FF"/>
</linearGradient>
<linearGradient id="paint1_linear_1_251" x1="342.042" y1="173.041" x2="246.993" y2="369.395" gradientUnits="userSpaceOnUse">
<stop stop-color="#C28AD4"/>
<stop offset="1" stop-color="#9D39FF"/>
</linearGradient>
<linearGradient id="paint2_linear_1_251" x1="416.212" y1="143.198" x2="299.483" y2="320.828" gradientUnits="userSpaceOnUse">
<stop stop-color="#FF5ED0"/>
<stop offset="1" stop-color="#FF21A7"/>
</linearGradient>
<linearGradient id="paint3_linear_1_251" x1="215.869" y1="191.797" x2="137.523" y2="227.528" gradientUnits="userSpaceOnUse">
<stop stop-color="#8EDE87"/>
<stop offset="1" stop-color="#47B95C"/>
</linearGradient>
</defs>
</svg>
