<svg width="512" height="512" viewBox="0 0 512 512" fill="none" xmlns="http://www.w3.org/2000/svg">
<rect width="512" height="512" fill="black"/>
<g filter="url(#filter0_d_1_251)">
<path d="M278.693 202.386C279.305 201.697 280.307 201.518 281.119 201.952L289.236 206.288C290.346 206.881 290.641 208.343 289.849 209.322L176.612 349.221C176.585 349.255 176.557 349.287 176.527 349.319C176.33 349.533 175.495 350.438 174.66 351.343C171.206 355.086 165.17 354.579 161.229 351.354C157.293 348.133 155.597 343.213 157.98 338.713C158.494 337.743 159.638 336.456 159.665 336.425C159.666 336.424 159.666 336.424 159.667 336.423L278.693 202.386Z" fill="#62B4E9"/>
</g>
<g filter="url(#filter1_d_1_251)">
<path d="M246.499 203.475C247.345 202.851 248.528 202.991 249.205 203.796L253.505 208.912C254.221 209.764 254.106 211.04 253.248 211.751L135.786 309.021C134.845 309.8 133.435 309.559 132.807 308.51L124.92 295.356C124.388 294.469 124.617 293.32 125.45 292.706L246.499 203.475Z" fill="#FF7E35"/>
</g>
<g filter="url(#filter2_d_1_251)">
<path d="M256.269 381.049C254.881 391.156 245.598 398.219 235.535 396.824C225.472 395.43 218.44 386.106 219.829 376C221.217 365.893 230.5 358.83 240.563 360.224C250.626 361.619 257.658 370.942 256.269 381.049Z" fill="url(#paint0_linear_1_251)"/>
<path d="M326.749 177.913C327.322 176.997 328.517 176.706 329.444 177.256L339.525 183.242C340.385 183.752 340.785 184.705 340.392 185.627C332.709 203.687 257.872 379.592 255.165 385.432C252.312 391.589 249.646 392.732 245.299 395.153C240.952 397.575 235.467 397.319 230.322 394.59C225.177 391.861 223.768 391.162 221.068 385.243C218.368 379.325 219.608 373.953 223.089 366.875C226.555 359.83 302.985 216.096 303.698 214.756C303.72 214.714 303.715 214.726 303.74 214.687L326.749 177.913Z" fill="url(#paint1_linear_1_251)"/>
</g>
<g filter="url(#filter3_d_1_251)">
<path d="M365.238 142.528C365.491 141.479 366.528 140.821 367.58 141.043L377.42 143.121C378.505 143.35 379.193 144.425 378.952 145.511L332.603 353.787C332.362 354.872 331.283 355.55 330.205 355.294L316.822 352.117C315.749 351.863 315.087 350.78 315.346 349.704L365.238 142.528Z" fill="url(#paint2_linear_1_251)"/>
</g>
<g filter="url(#filter4_d_1_251)">
<path d="M225.537 190.249C226.605 189.841 227.797 190.41 228.152 191.497L230.226 197.854C230.534 198.799 230.101 199.827 229.21 200.267L125.869 251.329C124.68 251.917 123.259 251.206 123.017 249.902L119.755 232.362C119.578 231.412 120.106 230.472 121.008 230.128L225.537 190.249Z" fill="url(#paint3_linear_1_251)"/>
</g>
<defs>
<filter id="filter0_d_1_251" x="150.885" y="195.717" width="145.411" height="164.248" filterUnits="userSpaceOnUse" color-interpolation-filters="sRGB">
<feFlood flood-opacity="0" result="BackgroundImageFix"/>
<feColorMatrix in="SourceAlpha" type="matrix" values="0 0 0 0 0 0 0 0 0 0 0 0 0 0 0 0 0 0 127 0" result="hardAlpha"/>
<feOffset/>
<feGaussianBlur stdDeviation="3"/>
<feComposite in2="hardAlpha" operator="out"/>
<feColorMatrix type="matrix" values="0 0 0 0 0.384314 0 0 0 0 0.705882 0 0 0 0 0.913725 0 0 0 1 0"/>
<feBlend mode="normal" in2="BackgroundImageFix" result="effect1_dropShadow_1_251"/>
<feBlend mode="normal" in="SourceGraphic" in2="effect1_dropShadow_1_251" result="shape"/>
</filter>
<filter id="filter1_d_1_251" x="118.634" y="197.086" width="141.341" height="118.394" filterUnits="userSpaceOnUse" color-interpolation-filters="sRGB">
<feFlood flood-opacity="0" result="BackgroundImageFix"/>
<feColorMatrix in="SourceAlpha" type="matrix" values="0 0 0 0 0 0 0 0 0 0 0 0 0 0 0 0 0 0 127 0" result="hardAlpha"/>
<feOffset/>
<feGaussianBlur stdDeviation="3"/>
<feComposite in2="hardAlpha" operator="out"/>
<feColorMatrix type="matrix" values="0 0 0 0 1 0 0 0 0 0.494118 0 0 0 0 0.207843 0 0 0 1 0"/>
<feBlend mode="normal" in2="BackgroundImageFix" result="effect1_dropShadow_1_251"/>
<feBlend mode="normal" in="SourceGraphic" in2="effect1_dropShadow_1_251" result="shape"/>
</filter>
<filter id="filter2_d_1_251" x="211.603" y="168.978" width="136.94" height="236.022" filterUnits="userSpaceOnUse" color-interpolation-filters="sRGB">
<feFlood flood-opacity="0" result="BackgroundImageFix"/>
<feColorMatrix in="SourceAlpha" type="matrix" values="0 0 0 0 0 0 0 0 0 0 0 0 0 0 0 0 0 0 127 0" result="hardAlpha"/>
<feOffset/>
<feGaussianBlur stdDeviation="4"/>
<feComposite in2="hardAlpha" operator="out"/>
<feColorMatrix type="matrix" values="0 0 0 0 0.760784 0 0 0 0 0.541176 0 0 0 0 0.831373 0 0 0 1 0"/>
<feBlend mode="normal" in2="BackgroundImageFix" result="effect1_dropShadow_1_251"/>
<feBlend mode="normal" in="SourceGraphic" in2="effect1_dropShadow_1_251" result="shape"/>
</filter>
<filter id="filter3_d_1_251" x="309.29" y="135" width="75.7097" height="226.349" filterUnits="userSpaceOnUse" color-interpolation-filters="sRGB">
<feFlood flood-opacity="0" result="BackgroundImageFix"/>
<feColorMatrix in="SourceAlpha" type="matrix" values="0 0 0 0 0 0 0 0 0 0 0 0 0 0 0 0 0 0 127 0" result="hardAlpha"/>
<feOffset/>
<feGaussianBlur stdDeviation="3"/>
<feComposite in2="hardAlpha" operator="out"/>
<feColorMatrix type="matrix" values="0 0 0 0 0.952941 0 0 0 0 0.0588235 0 0 0 0 0.486275 0 0 0 1 0"/>
<feBlend mode="normal" in2="BackgroundImageFix" result="effect1_dropShadow_1_251"/>
<feBlend mode="normal" in="SourceGraphic" in2="effect1_dropShadow_1_251" result="shape"/>
</filter>
<filter id="filter4_d_1_251" x="113.721" y="184.117" width="122.604" height="73.4211" filterUnits="userSpaceOnUse" color-interpolation-filters="sRGB">
<feFlood flood-opacity="0" result="BackgroundImageFix"/>
<feColorMatrix in="SourceAlpha" type="matrix" values="0 0 0 0 0 0 0 0 0 0 0 0 0 0 0 0 0 0 127 0" result="hardAlpha"/>
<feOffset/>
<feGaussianBlur stdDeviation="3"/>
<feComposite in2="hardAlpha" operator="out"/>
<feColorMatrix type="matrix" values="0 0 0 0 0.0627451 0 0 0 0 0.792157 0 0 0 0 0.705882 0 0 0 1 0"/>
<feBlend mode="normal" in2="BackgroundImageFix" result="effect1_dropShadow_1_251"/>
<feBlend mode="normal" in="SourceGraphic" in2="effect1_dropShadow_1_251" result="shape"/>
</filter>
<linearGradient id="paint0_linear_1_251" x1="334.748" y1="184.289" x2="241.128" y2="377.69" gradientUnits="userSpaceOnUse">
<stop stop-color="#C28AD4"/>
<stop offset="1" stop-color="#9D39FF"/>
</linearGradient>
<linearGradient id="paint1_linear_1_251" x1="334.748" y1="184.289" x2="241.128" y2="377.69" gradientUnits="userSpaceOnUse">
<stop stop-color="#C28AD4"/>
<stop offset="1" stop-color="#9D39FF"/>
</linearGradient>
<linearGradient id="paint2_linear_1_251" x1="405.803" y1="160.894" x2="290.829" y2="335.853" gradientUnits="userSpaceOnUse">
<stop stop-color="#FF5ED0"/>
<stop offset="1" stop-color="#FF21A7"/>
</linearGradient>
<linearGradient id="paint3_linear_1_251" x1="210.472" y1="202.762" x2="133.304" y2="237.956" gradientUnits="userSpaceOnUse">
<stop stop-color="#8EDE87"/>
<stop offset="1" stop-color="#47B95C"/>
</linearGradient>
</defs>
</svg>
